<svg xmlns="http://www.w3.org/2000/svg" viewBox="0 0 600 450">
  <rect width="600" height="450" fill="#f5e6c8"/>
  <!-- Red container -->
  <path d="M200 400 L220 230 L380 230 L400 400 Z" fill="#c0392b"/>
  <path d="M210 395 L228 240 L372 240 L390 395 Z" fill="#e74c3c"/>
  <!-- Fries sticking out -->
  <rect x="235" y="140" width="16" height="110" rx="3" fill="#f4d03f" transform="rotate(-8 243 195)"/>
  <rect x="260" y="120" width="16" height="130" rx="3" fill="#e8c430" transform="rotate(3 268 185)"/>
  <rect x="285" y="130" width="16" height="120" rx="3" fill="#f4d03f" transform="rotate(-2 293 190)"/>
  <rect x="310" y="115" width="16" height="135" rx="3" fill="#e8c430" transform="rotate(5 318 182)"/>
  <rect x="335" y="135" width="16" height="115" rx="3" fill="#f4d03f" transform="rotate(-5 343 192)"/>
  <rect x="355" y="125" width="16" height="125" rx="3" fill="#e8c430" transform="rotate(8 363 187)"/>
  <rect x="248" y="150" width="14" height="100" rx="3" fill="#dab52f" transform="rotate(6 255 200)"/>
  <rect x="322" y="145" width="14" height="105" rx="3" fill="#dab52f" transform="rotate(-4 329 197)"/>
  <text x="300" y="435" text-anchor="middle" font-family="Georgia,serif" font-size="22" fill="#5c3317" font-weight="bold">Crispy Fries</text>
</svg>
